<?xml version="1.0" encoding="UTF-8" standalone="no"?>
<!-- Generator: Adobe Illustrator 22.1.0, SVG Export Plug-In . SVG Version: 6.00 Build 0)  -->

<svg
   version="1.1"
   id="Calque_1"
   x="0px"
   y="0px"
   viewBox="0 0 315.5 314.9"
   style="enable-background:new 0 0 315.5 314.9;"
   xml:space="preserve"
   sodipodi:docname="Oblique-galaxy.svg"
   inkscape:version="1.1.2 (0a00cf5339, 2022-02-04)"
   xmlns:inkscape="http://www.inkscape.org/namespaces/inkscape"
   xmlns:sodipodi="http://sodipodi.sourceforge.net/DTD/sodipodi-0.dtd"
   xmlns="http://www.w3.org/2000/svg"
   xmlns:svg="http://www.w3.org/2000/svg"
   xmlns:rdf="http://www.w3.org/1999/02/22-rdf-syntax-ns#"
   xmlns:cc="http://creativecommons.org/ns#"
   xmlns:dc="http://purl.org/dc/elements/1.1/"><defs
   id="defs21"><linearGradient
     id="linearGradient32057"
     inkscape:swatch="gradient"><stop
       style="stop-color:#0a5b84;stop-opacity:1;"
       offset="0"
       id="stop32053" /><stop
       style="stop-color:#f9f9f9;stop-opacity:0;"
       offset="1"
       id="stop32055" /></linearGradient></defs><sodipodi:namedview
   id="namedview19"
   pagecolor="#505050"
   bordercolor="#eeeeee"
   borderopacity="1"
   inkscape:pageshadow="0"
   inkscape:pageopacity="0"
   inkscape:pagecheckerboard="0"
   showgrid="false"
   inkscape:zoom="2.7723087"
   inkscape:cx="-114.88619"
   inkscape:cy="101.17921"
   inkscape:window-width="5050"
   inkscape:window-height="1272"
   inkscape:window-x="0"
   inkscape:window-y="0"
   inkscape:window-maximized="1"
   inkscape:current-layer="g26418" />
<style
   type="text/css"
   id="style2">
	.st0{fill:#0A5B84;}
</style>
<title
   id="title4">Oblique-Logo-Dark</title>

<g
   inkscape:groupmode="layer"
   id="layer2"
   inkscape:label="galaxy"
   style="display:inline"
   sodipodi:insensitive="true"><g
     style="fill:#0a5b84;stroke:#0a5b84"
     id="g256"
     transform="matrix(1.2776371,0,0,1.348259,-4.7812403,-17.475715)"><g
       id="SVGRepo_bgCarrier-2"
       stroke-width="0" /><g
       id="SVGRepo_tracerCarrier-9"
       stroke-linecap="round"
       stroke-linejoin="round" /><g
       id="SVGRepo_iconCarrier-1"> <path
   d="m 127.1,65.7 c -36,0 -65.2,28.7 -65.2,63.9 0,35.2 29.2,63.9 65.2,63.9 15.7,0 30.2,-5.5 41.5,-14.7 1.9,1.3 4.2,1.9 6.8,1.9 7,0 12.6,-5.5 12.6,-12.2 0,-3.3 -1.3,-6.2 -3.5,-8.4 5.1,-9.1 7.9,-19.5 7.9,-30.5 -0.1,-35.3 -29.3,-63.9 -65.3,-63.9 z m 54.1,91.9 c -1.7,-0.8 -3.7,-1.4 -5.8,-1.4 -7,0 -12.6,5.5 -12.6,12.2 0,2.8 1.1,5.6 2.7,7.6 -10.4,8.3 -23.8,13.3 -38.4,13.3 -33.7,0 -61.1,-26.9 -61.1,-59.9 0,-33 27.4,-59.9 61.1,-59.9 33.7,0 61.1,26.9 61.1,59.9 0.1,10.2 -2.5,19.8 -7,28.2 z M 251,67.5 c 0,-11.7 -9.7,-21.2 -21.6,-21.2 -4.9,0 -9.3,1.6 -13,4.2 -22.2,-22.9 -53.9,-37.2 -89,-37.2 -67,0 -121.5,52.1 -121.5,116.2 0,64.1 54.5,116.2 121.5,116.2 67,0 121.5,-52.1 121.5,-116.2 0,-15.4 -3.2,-30.1 -8.9,-43.5 6.6,-3.8 11,-10.6 11,-18.5 z m -6.2,61.9 c 0,61.9 -52.6,112.3 -117.4,112.3 C 62.6,241.7 9.9,191.2 9.9,129.4 9.9,67.6 62.6,17.1 127.3,17.1 c 34,0 64.6,13.8 86.1,36 -3.5,3.8 -5.7,8.8 -5.7,14.3 0,11.7 9.7,21.2 21.6,21.2 2.4,0 4.7,-0.4 7,-1.2 5.5,13.1 8.5,27.2 8.5,42 z M 127.7,49.5 c -11.4,0 -22.3,2.3 -32.1,6.4 -1.6,-2.4 -4.4,-4 -7.6,-4 -5.1,0 -9.1,4 -9.1,9 0,1.4 0.3,2.7 0.9,3.9 -20.6,14.6 -34,38.2 -34,64.9 0,44.2 36.7,80.2 81.8,80.2 45.1,0 81.8,-36 81.8,-80.2 0,-44.2 -36.7,-80.2 -81.7,-80.2 z m 0,156.4 C 84.9,205.9 50,171.7 50,129.7 50,104.3 62.8,81.8 82.3,67.9 c 1.6,1.3 3.5,1.9 5.7,1.9 5.1,0 9.1,-4 9.1,-9 0,-0.4 0,-0.8 -0.1,-1.2 9.4,-4 19.8,-6.2 30.7,-6.2 42.8,0 77.7,34.2 77.7,76.2 0,42 -34.9,76.3 -77.7,76.3 z"
   id="path244"
   sodipodi:nodetypes="ssscssccscsscsssccsscsssscssssscsscsscsscsssssscsscsss" /> </g></g></g><g
   inkscape:groupmode="layer"
   id="g503"
   inkscape:label="oblique_logo copy"
   style="display:inline"
   sodipodi:insensitive="true"><g
     id="g501"
     transform="matrix(0.6628434,0,0,0.69948578,53.34618,48.969244)"><g
       id="g499"
       transform="matrix(1.4600927,0,0,1.4600927,-67.635647,-75.923754)"><rect
         x="-129.97462"
         y="197.65625"
         transform="rotate(-66.50349)"
         class="st0"
         width="93.538956"
         height="2.6634099"
         id="rect491"
         style="stroke-width:0.532682" /><rect
         x="-123.4066"
         y="177.79333"
         transform="rotate(-66.570431)"
         class="st0"
         width="79.044388"
         height="2.6632206"
         id="rect493"
         style="stroke-width:0.532644" /><rect
         x="-97.679352"
         y="161.49442"
         transform="rotate(-66.50349)"
         class="st0"
         width="32.706673"
         height="2.6634099"
         id="rect495"
         style="stroke-width:0.532682" /><path
         class="st0"
         d="m 154.03802,206.29818 c -1.59802,0 -3.24931,-0.0533 -4.79406,-0.21306 l 0.26634,-2.66337 c 1.49149,0.15981 3.03624,0.21307 4.58098,0.21307 25.19544,0 45.59681,-20.45464 45.59681,-45.65007 0,-13.10375 -5.64634,-25.56829 -15.50079,-34.1976 l 1.75783,-2.02415 c 20.02849,17.5782 21.99939,48.10036 4.36791,68.12886 -9.21524,10.44039 -22.42553,16.40632 -36.27502,16.40632 z"
         id="path497"
         style="stroke-width:0.532673" /><path
         style="fill:#f9f9f9;stroke-width:0.384281"
         d="m 149.49609,204.84352 v -1.10693 l 6.05242,-0.18899 c 4.85124,-0.15149 6.80084,-0.38623 9.82345,-1.18278 7.72844,-2.0367 14.24303,-5.64028 19.99803,-11.06202 13.20639,-12.44166 17.76953,-30.90506 11.94011,-48.31205 -1.98107,-5.91557 -5.95967,-12.32085 -10.59785,-17.06183 l -2.17265,-2.2208 0.73462,-0.86154 0.7346,-0.86155 2.90691,3.03675 c 5.54248,5.79006 9.66906,13.24183 11.77021,21.25462 1.10938,4.23066 1.18923,4.98638 1.20927,11.44678 0.0241,7.76554 -0.51606,10.98357 -2.91606,17.37309 -5.8327,15.52839 -20.25425,27.41487 -36.75236,30.2919 -1.7734,0.30926 -5.36329,0.56228 -7.97754,0.56228 h -4.75316 z"
         id="path561" /><path
         style="fill:#f9f9f9;stroke-width:0.384281"
         d="m 130.53725,198.37547 c -0.50886,-0.12962 -0.64383,-0.41106 -0.48426,-1.00981 0.45261,-1.69823 36.6527,-84.5757 36.99115,-84.68851 0.19365,-0.0645 0.6752,0.1189 1.07012,0.40767 0.67934,0.49676 -0.27428,2.80833 -17.70717,42.92147 -10.13386,23.31803 -18.59151,42.43073 -18.79478,42.47265 -0.20327,0.042 -0.68705,-0.005 -1.07506,-0.10347 z"
         id="path600" /><path
         style="fill:#f9f9f9;stroke-width:0.384281"
         d="m 115.3756,184.31451 c -0.48409,-0.21967 -0.82994,-0.63379 -0.76856,-0.92028 0.32695,-1.526 30.91795,-71.57473 31.26099,-71.58293 0.2238,-0.006 0.7038,0.20738 1.06667,0.47272 0.60182,0.44005 -0.6899,3.59664 -14.70552,35.93607 -8.4509,19.49949 -15.50211,35.68767 -15.66934,35.97372 -0.22992,0.39327 -0.5187,0.42269 -1.18424,0.1207 z"
         id="path639" /><path
         style="fill:#f9f9f9;stroke-width:0.72142"
         d=""
         id="path678" /><path
         style="fill:#f9f9f9;stroke-width:0.384281"
         d="m 110.49155,154.37618 c -0.42271,-0.22937 -0.82541,-0.46278 -0.8949,-0.51871 -0.0695,-0.056 2.76281,-6.76072 6.29399,-14.89953 6.34904,-14.63351 6.43046,-14.79323 7.33161,-14.38264 0.50121,0.22836 0.91128,0.57713 0.91128,0.77504 0,0.44187 -12.27142,28.80958 -12.6222,29.17858 -0.13817,0.14535 -0.59707,0.0766 -1.01978,-0.15274 z"
         id="path717" /><path
         style="fill:#b3b3b3;stroke-width:0.384281"
         d="m 110.34157,154.10669 c -0.42767,-0.27083 0.51358,-2.78026 4.71833,-12.57932 6.20474,-14.45999 7.15379,-16.42086 8.0292,-16.58945 0.37781,-0.0728 0.66015,0.11008 0.66015,0.42749 0,0.30505 -1.9682,5.11643 -4.37376,10.69198 -6.7494,15.64352 -7.98609,18.39986 -8.25264,18.39351 -0.13586,-0.003 -0.48743,-0.15813 -0.78128,-0.34421 z"
         id="path832" /><path
         style="fill:#b3b3b3;stroke-width:0.384281"
         d="m 115.35002,184.08851 c -0.34856,-0.22085 -0.427,-0.63303 -0.23654,-1.24302 0.57422,-1.83904 17.91152,-41.75792 29.14461,-67.10502 1.43271,-3.23286 2.54803,-4.51921 2.54803,-2.93877 0,0.90661 -3.96887,10.35394 -16.53082,39.3494 -11.12709,25.68351 -14.04868,32.28513 -14.28292,32.27372 -0.0665,-0.003 -0.35556,-0.15457 -0.64236,-0.33631 z"
         id="path871" /><path
         style="fill:#b3b3b3;stroke-width:0.72142"
         d=""
         id="path910" /><path
         style="fill:#b3b3b3;stroke-width:0.384281"
         d="m 130.43733,197.31407 c 0.38465,-1.53256 25.92175,-60.39504 34.50197,-79.52631 2.03741,-4.54282 3.38842,-6.28374 2.87181,-3.70062 -0.44144,2.20716 -10.42659,25.59196 -27.73902,64.96364 -8.04882,18.30449 -8.48578,19.21405 -9.23047,19.21405 -0.49209,0 -0.58693,-0.22304 -0.40429,-0.95076 z"
         id="path949" /><path
         style="fill:#b3b3b3;stroke-width:0.384281"
         d="m 149.49609,205.08648 c 0,-0.85954 0.19285,-0.97355 2.01746,-1.19271 1.10962,-0.13328 3.31443,-0.24725 4.89959,-0.25328 4.25745,-0.0162 7.73459,-0.62036 12.23284,-2.12557 7.12363,-2.38371 12.99562,-6.08051 18.33623,-11.54383 5.27383,-5.395 9.57202,-12.97461 11.53155,-20.3352 1.35536,-5.09117 1.72195,-13.95408 0.79687,-19.2662 -1.58971,-9.12882 -5.26346,-16.57907 -11.71512,-23.75785 -2.50004,-2.7818 -2.6936,-3.11241 -2.1373,-3.65067 0.5544,-0.53642 0.86053,-0.32437 3.26832,2.26394 5.70305,6.13058 9.46063,12.94208 11.88592,21.54605 1.04534,3.70846 1.43753,12.46875 0.80016,17.87311 -1.76639,14.97745 -12.34357,29.34333 -26.74612,36.32645 -6.71371,3.25516 -11.32396,4.37732 -19.6944,4.79373 l -5.476,0.27241 z"
         id="path988" /></g></g><path
     style="fill:none;stroke-width:0.510121"
     d="m 134.22165,207.42256 c -11.25197,-0.17311 -16.90675,-0.44584 -17.59918,-0.84881 -1.31891,-0.76757 -3.50965,-3.13815 -4.40123,-4.76253 -0.52845,-0.96278 -0.77265,-5.02548 -0.99652,-16.57894 -0.1631,-8.417 -0.60678,-17.54179 -0.98596,-20.27731 -0.57714,-4.16373 -0.57829,-5.78364 -0.007,-9.94737 0.37529,-2.73552 0.81897,-11.86032 0.98595,-20.27732 0.25625,-12.91685 0.43573,-15.54231 1.15077,-16.834 1.13787,-2.0555 3.40601,-4.14259 5.27428,-4.85326 1.09534,-0.41666 12.09414,-0.58306 38.69243,-0.58537 l 37.16207,-0.003 2.36778,1.2185 c 1.62904,0.83833 2.84667,1.99292 3.90269,3.70064 l 1.53492,2.48214 0.36486,16.10935 c 0.20067,8.86015 0.56492,17.8884 0.80945,20.06279 0.2527,2.24712 0.2527,5.65977 0,7.90688 -0.24453,2.17439 -0.60878,11.20265 -0.80945,20.0628 l -0.36486,16.10934 -1.55127,2.51008 c -0.9504,1.53782 -2.33353,2.93122 -3.57084,3.59736 -1.95319,1.05154 -2.73243,1.09347 -23.69974,1.2753 -11.92409,0.10341 -29.14068,0.0732 -38.2591,-0.067 z m 5.30353,-2.74191 c -11.04557,-4.55052 -19.63756,-12.76794 -24.93022,-23.84335 l -2.28769,-4.7872 -0.0104,11.78009 c -0.01,11.35455 0.0324,11.8613 1.17562,14.02833 0.7394,1.40159 1.94005,2.67732 3.18826,3.38763 1.92192,1.09369 2.5034,1.13935 14.50019,1.13844 l 12.49797,-0.001 -4.13372,-1.703 z m 55.24016,1.17757 c 1.80117,-0.68245 3.57898,-2.31926 4.67264,-4.30206 0.70576,-1.27954 0.86601,-3.49512 0.97775,-13.51821 l 0.13364,-11.98785 -2.47012,4.95312 c -5.88771,11.80611 -15.17824,20.24675 -26.87381,24.41543 l -2.5506,0.90912 12.33723,0.0373 c 7.59473,0.023 12.88925,-0.17188 13.77327,-0.50682 z m -31.94195,-19.15246 c 4.34886,-1.29031 7.57222,-3.14407 10.76898,-6.19326 3.63064,-3.46304 5.74585,-6.6933 7.33924,-11.20817 1.75717,-4.97895 1.75717,-13.66715 0,-18.6461 -1.2464,-3.53167 -3.26027,-6.96686 -5.83362,-9.95079 -1.25387,-1.45392 -1.52856,-1.57307 -2.08393,-0.90389 -0.53316,0.64242 -0.30412,1.15201 1.37532,3.05995 8.89877,10.10954 8.264,25.8964 -1.432,35.61364 -5.20414,5.21554 -9.2691,6.80385 -19.22359,7.51126 -0.0701,0.005 -0.12753,0.3534 -0.12753,0.77425 0,1.06507 5.55113,1.03081 9.21713,-0.0569 z m -14.66168,-12.31355 c 5.7211,-13.52946 15.62152,-37.85251 15.96586,-39.22448 0.21245,-0.84648 0.0842,-1.20263 -0.43289,-1.20263 -0.42338,0 -1.28219,1.35105 -2.02665,3.18826 -0.71055,1.75354 -5.2263,12.67794 -10.03499,24.27643 -4.80869,11.5985 -8.61391,21.29718 -8.45604,21.55263 0.15788,0.25544 0.48252,0.46444 0.72144,0.46444 0.23891,0 2.15738,-4.07459 4.26327,-9.05465 z m -3.94447,-18.57281 c 7.82999,-19.1237 8.98461,-22.36442 7.96805,-22.36442 -0.29054,0 -2.25361,4.07459 -4.36238,9.05465 -6.2721,14.8122 -13.09113,31.6122 -13.09113,32.25254 0,0.32865 0.36448,0.52334 0.80997,0.43262 0.53821,-0.10959 3.44898,-6.61037 8.67549,-19.37539 z m -7.24722,-5.85107 c 2.53067,-6.2295 3.29514,-8.6334 2.87816,-9.05039 -0.7778,-0.7778 -0.98534,-0.38831 -4.64087,8.70928 -2.81684,7.01032 -3.24215,8.8237 -2.06953,8.8237 0.21246,0 1.93696,-3.81717 3.83224,-8.48259 z m -19.29853,-16.61194 c 5.3463,-8.26453 13.21423,-14.72101 22.31532,-18.3121 l 3.67209,-1.44892 -12.45316,-0.0176 c -12.35901,-0.0174 -12.4695,-0.008 -14.61698,1.25053 -1.44282,0.84555 -2.52013,2.00408 -3.23308,3.47685 -0.99222,2.04964 -1.06792,3.05151 -1.05095,13.90801 l 0.0183,11.69926 1.49669,-3.45774 c 0.82319,-1.90177 2.55648,-5.09601 3.85178,-7.09833 z m 82.60454,-11.48093 c -0.34361,-2.88672 -1.73128,-5.32293 -3.98325,-6.993 -1.35855,-1.00752 -2.15669,-1.07425 -14.28339,-1.19431 l -12.84443,-0.12716 3.57085,1.46638 c 11.92221,4.89591 21.60037,14.43679 26.349,25.97524 l 1.19754,2.90985 0.1547,-9.6923 c 0.0851,-5.33077 0.0126,-10.88588 -0.16102,-12.3447 z"
     id="path2270" /></g><g
   inkscape:groupmode="layer"
   id="g26424"
   inkscape:label="oblique_logo copy copy"
   style="display:inline"><g
     id="g26420"
     transform="matrix(0.6628434,0,0,0.69948578,53.34618,48.969244)"><g
       id="g26418"
       transform="matrix(1.4600927,0,0,1.4600927,-67.635647,-75.923754)"><path
         style="fill:#0a5b84;stroke-width:0.384281;fill-opacity:1"
         d="m 149.49609,204.84352 v -1.10693 l 6.05242,-0.18899 c 4.85124,-0.15149 6.80084,-0.38623 9.82345,-1.18278 7.72844,-2.0367 14.24303,-5.64028 19.99803,-11.06202 13.20639,-12.44166 17.76953,-30.90506 11.94011,-48.31205 -1.98107,-5.91557 -5.95967,-12.32085 -10.59785,-17.06183 l -2.17265,-2.2208 0.73462,-0.86154 0.7346,-0.86155 2.90691,3.03675 c 5.54248,5.79006 9.66906,13.24183 11.77021,21.25462 1.10938,4.23066 1.18923,4.98638 1.20927,11.44678 0.0241,7.76554 -0.51606,10.98357 -2.91606,17.37309 -5.8327,15.52839 -20.25425,27.41487 -36.75236,30.2919 -1.7734,0.30926 -5.36329,0.56228 -7.97754,0.56228 h -4.75316 z"
         id="path26398" /><path
         style="fill:#0a5b84;stroke-width:0.384281;fill-opacity:1"
         d="m 130.53725,198.37547 c -0.50886,-0.12962 -0.64383,-0.41106 -0.48426,-1.00981 0.45261,-1.69823 36.6527,-84.5757 36.99115,-84.68851 0.19365,-0.0645 0.6752,0.1189 1.07012,0.40767 0.67934,0.49676 -0.27428,2.80833 -17.70717,42.92147 -10.13386,23.31803 -18.59151,42.43073 -18.79478,42.47265 -0.20327,0.042 -0.68705,-0.005 -1.07506,-0.10347 z"
         id="path26400" /><path
         style="fill:#0a5b84;stroke-width:0.384281;fill-opacity:1"
         d="m 115.3756,184.31451 c -0.48409,-0.21967 -0.82994,-0.63379 -0.76856,-0.92028 0.32695,-1.526 30.91795,-71.57473 31.26099,-71.58293 0.2238,-0.006 0.7038,0.20738 1.06667,0.47272 0.60182,0.44005 -0.6899,3.59664 -14.70552,35.93607 -8.4509,19.49949 -15.50211,35.68767 -15.66934,35.97372 -0.22992,0.39327 -0.5187,0.42269 -1.18424,0.1207 z"
         id="path26402" /><path
         style="fill:#0a5b84;stroke-width:0.384281;fill-opacity:1"
         d="m 110.49155,154.37618 c -0.42271,-0.22937 -0.82541,-0.46278 -0.8949,-0.51871 -0.0695,-0.056 2.76281,-6.76072 6.29399,-14.89953 6.34904,-14.63351 6.43046,-14.79323 7.33161,-14.38264 0.50121,0.22836 0.91128,0.57713 0.91128,0.77504 0,0.44187 -12.27142,28.80958 -12.6222,29.17858 -0.13817,0.14535 -0.59707,0.0766 -1.01978,-0.15274 z"
         id="path26406" /></g></g></g><g
   id="layer3"
   inkscape:label="Angular"
   style="display:inline"
   inkscape:groupmode="layer"
   sodipodi:insensitive="true"><g
     id="frameworks-and-libraries/angular"
     stroke="none"
     stroke-width="1"
     fill="none"
     fill-rule="evenodd"
     transform="matrix(0.94521247,0,0,0.99745948,251.43982,38.981338)"><g
       id="container"
       transform="translate(2,2)"
       fill="#ffffff"
       fill-rule="nonzero"
       stroke="#78011e"
       stroke-width="2" /><g
       id="Angular_full_color_logo"
       transform="translate(13,11)"
       fill-rule="nonzero"><polygon
         id="Shape"
         fill="#dd0031"
         points="47.392032,8.4094894 23.81,0 0.22796808,8.4094894 3.8247979,39.590457 23.81,50.659574 43.795202,39.590457 "
         transform="translate(2.2219858,-0.20028823)" /><polygon
         id="polygon268"
         fill="#c3002f"
         points="23.81,0 23.81,5.6232128 23.81,5.597883 23.81,31.256957 23.81,50.659574 43.795202,39.590457 47.392032,8.4094894 "
         transform="translate(2.2219858,-0.20028823)" /><path
         d="M 26.03198,5.3975948 11.290046,38.452966 h 5.496562 l 2.963585,-7.396298 h 12.512915 l 2.963585,7.396298 h 5.496564 z M 30.338044,26.497307 H 21.725916 L 26.03198,16.137424 Z"
         id="path270"
         fill="#ffffff" /><path
         style="fill:none;stroke-width:0.055162"
         d="M 11.393121,38.309001 C 11.537815,37.928467 26.002227,5.5383471 26.027946,5.5372761 c 0.03088,-0.0013 14.613337,32.7701849 14.613337,32.8409109 0,0.01892 -1.213141,0.03441 -2.695873,0.03441 h -2.695873 l -1.482662,-3.695737 -1.482662,-3.695738 -6.278902,0.01366 -6.278902,0.01366 -1.475591,3.668286 -1.475586,3.668285 -2.710951,0.01431 c -2.642084,0.01395 -2.709937,0.01165 -2.67116,-0.09032 z M 30.137988,25.932152 c -0.129966,-0.310977 -1.100192,-2.644338 -2.156057,-5.185246 -1.055864,-2.540908 -1.934707,-4.619314 -1.952982,-4.618679 -0.02561,9.08e-4 -4.131289,9.84268 -4.28549,10.272803 -0.03279,0.09141 0.195301,0.09653 4.298112,0.09653 h 4.332719 z"
         id="path1264" /><path
         style="fill:none;stroke-width:0.055162"
         d="M 11.393121,38.309001 C 11.537815,37.928467 26.002227,5.5383471 26.027946,5.5372761 c 0.03088,-0.0013 14.613337,32.7701849 14.613337,32.8409109 0,0.01892 -1.213141,0.03441 -2.695873,0.03441 h -2.695873 l -1.482662,-3.695737 -1.482662,-3.695738 -6.278902,0.01366 -6.278902,0.01366 -1.475591,3.668286 -1.475586,3.668285 -2.710951,0.01431 c -2.642084,0.01395 -2.709937,0.01165 -2.67116,-0.09032 z M 30.137988,25.932152 c -0.129966,-0.310977 -1.100192,-2.644338 -2.156057,-5.185246 -1.055864,-2.540908 -1.934707,-4.619314 -1.952982,-4.618679 -0.02561,9.08e-4 -4.131289,9.84268 -4.28549,10.272803 -0.03279,0.09141 0.195301,0.09653 4.298112,0.09653 h 4.332719 z"
         id="path1340" /><path
         style="fill:none;stroke-width:0.055162"
         d="M 11.393121,38.309001 C 11.537815,37.928467 26.002227,5.5383471 26.027946,5.5372761 c 0.03088,-0.0013 14.613337,32.7701849 14.613337,32.8409109 0,0.01892 -1.213141,0.03441 -2.695873,0.03441 h -2.695873 l -1.482662,-3.695737 -1.482662,-3.695738 -6.278902,0.01366 -6.278902,0.01366 -1.475591,3.668286 -1.475586,3.668285 -2.710951,0.01431 c -2.642084,0.01395 -2.709937,0.01165 -2.67116,-0.09032 z M 30.137988,25.932152 c -0.129966,-0.310977 -1.100192,-2.644338 -2.156057,-5.185246 -1.055864,-2.540908 -1.934707,-4.619314 -1.952982,-4.618679 -0.02561,9.08e-4 -4.131289,9.84268 -4.28549,10.272803 -0.03279,0.09141 0.195301,0.09653 4.298112,0.09653 h 4.332719 z"
         id="path1379" /><path
         style="fill:none;stroke-width:0.055162"
         d="m 26.023304,40.760245 v -9.68422 h 3.104906 3.104902 l 1.485729,3.695867 1.485725,3.695866 h 2.779423 c 2.201905,0 2.773522,-0.01433 2.75103,-0.06895 -0.01561,-0.03792 -3.332142,-7.500328 -7.370058,-16.583119 L 26.023304,5.3015222 V 2.5778754 c 0,-1.98818607 0.01683,-2.72364681 0.06234,-2.72364681 0.0343,0 1.169943,0.39567236 2.523673,0.87927223 2.862025,1.02241808 8.676057,3.09616178 15.879513,5.66389108 3.460745,1.2336105 5.088703,1.8386123 5.088711,1.8911289 1.8e-5,0.099283 -3.519047,30.6378232 -3.56093,30.9018632 -0.03123,0.196904 -0.04652,0.206906 -1.80703,1.182112 -0.976541,0.54094 -2.545041,1.409969 -3.485556,1.931177 -0.940518,0.521208 -3.112527,1.723504 -4.826694,2.671771 -1.714164,0.948267 -3.327657,1.842564 -3.585543,1.987326 -0.257881,0.144762 -1.75967,0.976734 -3.33731,1.848826 -1.57764,0.872092 -2.887052,1.596252 -2.909804,1.609245 -0.02275,0.01299 -0.04139,-4.334275 -0.04139,-9.660596 z"
         id="path1418" /></g></g></g><metadata
   id="metadata1160"><rdf:RDF><cc:Work
       rdf:about=""><dc:title>Oblique-Logo-Dark</dc:title></cc:Work></rdf:RDF></metadata></svg>
