<?xml version="1.0" encoding="UTF-8"?>
<svg id="Ebene_1" viewBox="-77 -77 1690 1690" xmlns="http://www.w3.org/2000/svg">
	<defs>
		<style>.cls-1 {
			fill: #fff;
		}

		.cls-2 {
			fill: #000509;
		}

		.cls-3 {
			fill: none;
			mask: url(#mask);
		}

		.cls-4 {
			fill: red;
			fill-rule: evenodd;
		}</style>
		<mask height="1536" id="mask" maskUnits="userSpaceOnUse" width="1536" x="0" y="0">
			<g id="mask-2">
				<rect class="cls-1" height="1536" id="path-1" width="1536" x="0" y="0" />
			</g>
		</mask>
	</defs>
	<g id="Mask">
		<path class="cls-2"
					d="m1535.84,341.74v852.52c0,188.65-152.93,341.58-341.58,341.58H341.74c-181.02,0-329.14-140.8-340.83-318.86-.5-7.51-.75-15.09-.75-22.72V341.74C.16,153.09,153.09.16,341.74.16h852.52c7.63,0,15.21.25,22.72.75,178.06,11.69,318.86,159.81,318.86,340.83Z" />
	</g>
	<path class="cls-1" d="m1216.98.91L.91,1216.98c-.5-7.51-.75-15.09-.75-22.72V341.74C.16,153.09,153.09.16,341.74.16h852.52c7.63,0,15.21.25,22.72.75Z" />
	<g class="cls-3">
		<path class="cls-4"
					d="m529.43,226.98s-61.48-26.98-164.42-26.98h-.03c-102.92,0-164.42,26.98-164.42,26.98,0,0-5.49,119.42,17.83,186.95,41.24,118.72,146.58,152.07,146.58,152.07h.06s105.34-33.35,146.57-152.07c23.35-67.53,17.83-186.95,17.83-186.95Zm-55.43,168.37h-76.65v76.65h-65.69v-76.65h-76.66v-65.7h76.66v-76.65h65.68v76.65h76.66v65.7Z"
					id="Combined-Shape" />
	</g>
</svg>
